<?xml version="1.0" encoding="utf-8"?>
<!-- Generator: Adobe Illustrator 19.0.0, SVG Export Plug-In . SVG Version: 6.00 Build 0)  -->
<svg version="1.1" id="Layer_1" xmlns="http://www.w3.org/2000/svg" xmlns:xlink="http://www.w3.org/1999/xlink" x="0px" y="0px"
	 viewBox="0 0 50 50" style="enable-background:new 0 0 50 50;" xml:space="preserve">
<style type="text/css">
	.st0{fill:#FF6A4F;}
</style>
<path id="XMLID_8_" class="st0" d="M38.8,22.5H17.1l6.9-6.9c0.9-0.9,0.9-2.5,0-3.4c-0.9-0.9-2.5-0.9-3.4,0L9.9,22.8
	c-0.7,0.4-1.2,1.2-1.2,2.1c0,0,0,0,0,0.1c0,0.6,0.2,1.3,0.7,1.8l11.1,11.1c0.5,0.5,1.1,0.7,1.7,0.7c0.6,0,1.2-0.2,1.7-0.7
	c0.9-0.9,0.9-2.5,0-3.4l-7.1-7.1h22c1.3,0,2.4-1.1,2.4-2.4S40.2,22.5,38.8,22.5z"/>
</svg>
