<?xml version="1.0" encoding="utf-8"?>
<!-- Generator: Adobe Illustrator 19.0.0, SVG Export Plug-In . SVG Version: 6.00 Build 0)  -->
<svg version="1.1" id="Layer_1" xmlns="http://www.w3.org/2000/svg" xmlns:xlink="http://www.w3.org/1999/xlink" x="0px" y="0px"
	 viewBox="0 0 300 300" style="enable-background:new 0 0 300 300;" xml:space="preserve">
<style type="text/css">
	.st0{fill:#CFCFCF;}
</style>
<path id="XMLID_8_" class="st0" d="M291.1,71.4c0-7.2-5.2-13.8-13.8-19.1c0-2.5,0-5.6,0-5.7c0-5.9-20.3-8.2-44.3-7
	c-4.3-0.4-8.7-0.6-13.2-0.6c-34.2,0-62.8,11-69.8,25.6C143.1,50,114.5,39,80.2,39C40.8,39,8.9,53.5,8.9,71.4c0,0.2,0.1,0.4,0.1,0.6
	c0,0.1-0.1,0.2-0.1,0.3v169c0,2.6,1.6,3.4,3.6,1.7c0,0,28.3-23.7,67.7-23.7S148,243,148,243c0.8,0.6,1.4,0.8,2,0.8
	c0.6,0,1.3-0.1,2-0.8c0,0,28.3-23.7,67.7-23.7s67.7,23.7,67.7,23.7c2,1.7,3.6,0.9,3.6-1.7v-169c0-0.1-0.1-0.2-0.1-0.3
	C291.1,71.8,291.1,71.6,291.1,71.4z M252.8,187.7c0,2-1.1,2.6-2.4,1.3c0,0-18.6-5.4-44.5-4.7c-25.9,0.6-44.5,16.8-44.5,16.8
	c-1.3,1.1-2.4,0.6-2.4-1.1V88.4c0-0.1,0-0.1,0-0.2c0-0.1,0-0.2,0-0.4c0-11.8,10.1-21,36-26.2c25.9-5.3,57.9-4.5,57.9,2.8
	c0,0.1,0,7.5,0,7.6c0,0.1,0,0.1,0,0.2V187.7z"/>
</svg>
