<?xml version="1.0" encoding="utf-8"?>
<!-- Generator: Adobe Illustrator 19.0.0, SVG Export Plug-In . SVG Version: 6.00 Build 0)  -->
<svg version="1.1" id="Layer_1" xmlns="http://www.w3.org/2000/svg" xmlns:xlink="http://www.w3.org/1999/xlink" x="0px" y="0px"
	 viewBox="0 0 300 300" style="enable-background:new 0 0 300 300;" xml:space="preserve">
<style type="text/css">
	.st0{fill:#298BF9;}
	.st1{fill:#FFFFFF;}
</style>
<circle id="XMLID_1_" class="st0" cx="150.1" cy="150.1" r="76.5"/>
<path id="XMLID_8_" class="st1" d="M183.2,171.1c0,0-0.2-0.3-0.5-0.7c-0.4-0.5-0.8-1.1-1.5-2c-0.6-0.8-1.4-1.8-2.3-3
	c-0.9-1.1-2-2.4-3.1-3.8s-2.4-2.8-3.8-4.4c-1.4-1.6-2.8-3.2-4.4-4.8c-0.7-0.8-1.5-1.6-2.2-2.4c0.8-0.8,1.5-1.6,2.3-2.4
	c1.5-1.7,3-3.3,4.4-4.8c1.4-1.6,2.6-3,3.8-4.4c1.1-1.4,2.2-2.7,3.1-3.8c0.9-1.1,1.7-2.2,2.3-3c0.6-0.8,1.1-1.5,1.5-2
	c0.3-0.5,0.5-0.7,0.5-0.7c2.1-2.9,2.2-6.9,0-10c-2.8-3.9-8.1-4.7-12-2c0,0-0.3,0.2-0.7,0.5c-0.5,0.4-1.1,0.8-2,1.5
	c-0.8,0.6-1.8,1.4-3,2.3s-2.4,2-3.8,3.1c-1.4,1.1-2.8,2.4-4.4,3.8c-1.6,1.4-3.2,2.8-4.8,4.4c-0.8,0.7-1.6,1.5-2.4,2.2
	c-0.8-0.8-1.6-1.5-2.4-2.2c-1.7-1.5-3.3-3-4.8-4.4c-1.6-1.4-3-2.6-4.4-3.8c-1.4-1.1-2.7-2.2-3.8-3.1s-2.2-1.7-3-2.3
	c-0.8-0.6-1.5-1.1-2-1.5c-0.5-0.3-0.7-0.5-0.7-0.5c-2.9-2.1-6.9-2.2-10,0c-3.9,2.8-4.8,8.2-2,12c0,0,0.2,0.3,0.5,0.7
	c0.4,0.5,0.8,1.1,1.5,2c0.6,0.8,1.4,1.8,2.3,3c0.9,1.1,2,2.4,3.1,3.8c1.1,1.4,2.4,2.8,3.8,4.4c1.4,1.6,2.8,3.2,4.4,4.8
	c0.7,0.8,1.5,1.6,2.3,2.4c-0.8,0.8-1.5,1.6-2.2,2.4c-1.5,1.7-3,3.3-4.4,4.8c-1.4,1.6-2.6,3-3.8,4.4c-1.1,1.4-2.2,2.7-3.1,3.8
	s-1.7,2.2-2.3,3c-0.6,0.8-1.1,1.5-1.5,2c-0.3,0.5-0.5,0.7-0.5,0.7c-2.1,2.9-2.2,7,0,10.1c2.8,3.9,8.1,4.7,12,2c0,0,0.3-0.2,0.7-0.5
	c0.5-0.4,1.1-0.8,2-1.5c0.8-0.6,1.8-1.4,3-2.3s2.4-2,3.8-3.1c1.4-1.1,2.8-2.4,4.4-3.8c1.6-1.4,3.2-2.8,4.8-4.4
	c0.8-0.7,1.6-1.5,2.4-2.3c0.8,0.8,1.6,1.5,2.4,2.3c1.7,1.5,3.3,3,4.8,4.4c1.6,1.4,3,2.6,4.4,3.8c1.4,1.1,2.7,2.2,3.8,3.1
	s2.2,1.7,3,2.3c0.8,0.6,1.5,1.1,2,1.5c0.5,0.3,0.7,0.5,0.7,0.5c2.9,2.1,7,2.2,10.1,0C185.1,180.4,185.9,175,183.2,171.1z"/>
</svg>
