<?xml version="1.0" encoding="utf-8"?>
<!-- Generator: Adobe Illustrator 19.0.0, SVG Export Plug-In . SVG Version: 6.00 Build 0)  -->
<svg version="1.1" id="Layer_1" xmlns="http://www.w3.org/2000/svg" xmlns:xlink="http://www.w3.org/1999/xlink" x="0px" y="0px"
	 viewBox="0 0 300 300" style="enable-background:new 0 0 300 300;" xml:space="preserve">
<style type="text/css">
	.st0{fill:#CDCCCC;}
</style>
<g id="XMLID_4_">
	<path id="XMLID_5_" class="st0" d="M245.8,171.9l-10.7-10c-2.8-2.6-4.4-6.2-4.6-10.1l0-0.2l0-0.6c0.1-4,1.9-7.8,4.9-10.4l11-9.6
		c1.7-1.5,2.3-4,1.5-6.1l-9.4-23.7c-0.5-1.4-1.6-2.4-2.9-3c-0.8-0.3-1.5-0.5-2.4-0.4l-14.6,0.5c-2.1,0.1-4.3-0.3-6.2-1.2
		c-1.7-0.8-3.3-1.8-4.6-3.1l-0.3-0.3c-2.6-2.9-4-6.7-3.7-10.6l1-14.6c0.2-2.3-1.2-4.5-3.3-5.4l-23.5-10.1c-2.1-0.9-4.6-0.4-6.2,1.3
		l-10,10.7c-2.8,3-6.7,4.6-10.7,4.6c-1.9,0-3.7-0.4-5.5-1.2c-1.9-0.8-3.7-2.1-5.1-3.7l-9.6-11c-0.5-0.6-1.2-1.1-1.9-1.4
		c-1.3-0.6-2.8-0.6-4.2-0.1l-23.8,9.4c-2.1,0.8-3.5,3-3.4,5.3l0.5,14.6c0.1,3.9-1.4,7.8-4.2,10.6l-0.2,0.2C91,95,87,96.4,83,96.2
		l-14.6-1c-2.3-0.2-4.4,1.2-5.4,3.3l-10.1,23.4c-0.9,2.1-0.4,4.6,1.3,6.1l10.7,10c2.8,2.6,4.5,6.4,4.6,10.4l0,0.8
		c-0.2,3.9-2,7.6-4.9,10.1l-11,9.6c-1.7,1.5-2.3,4-1.5,6.1l9.4,23.8c0.5,1.4,1.6,2.4,2.9,3c0.7,0.3,1.5,0.5,2.4,0.4l14.6-0.5
		c2.1-0.1,4.3,0.3,6.2,1.2c1.7,0.7,3.2,1.8,4.7,3.3l0.4,0.4c2.5,2.8,3.8,6.6,3.5,10.4l-1,14.6c-0.2,2.3,1.2,4.5,3.3,5.4l23.4,10.1
		c2.1,0.9,4.6,0.4,6.1-1.3l9.9-10.7c2.7-2.9,6.5-4.6,10.6-4.6l0.3,0c1.9,0,3.7,0.4,5.4,1.2c1.9,0.8,3.7,2.1,5,3.7l9.7,11.1
		c0.5,0.6,1.2,1.1,1.9,1.4c1.3,0.6,2.8,0.6,4.2,0.1l23.8-9.4c2.1-0.8,3.5-3,3.4-5.3l-0.5-14.7c-0.1-3.8,1.3-7.5,3.8-10.3l0.1-0.2
		l0.5-0.5c2.9-2.7,6.8-4.2,10.8-3.9l14.6,1c2.3,0.2,4.5-1.2,5.4-3.3l10.1-23.4C248,176,247.5,173.5,245.8,171.9z M138.4,176.9
		c-14.8-6.4-21.7-23.7-15.3-38.6c6.4-14.8,23.7-21.7,38.6-15.3c14.9,6.4,21.7,23.7,15.3,38.6C170.5,176.5,153.2,183.3,138.4,176.9z"
		/>
</g>
</svg>
