<?xml version="1.0" encoding="utf-8"?>
<!-- Generator: Adobe Illustrator 19.0.0, SVG Export Plug-In . SVG Version: 6.00 Build 0)  -->
<svg version="1.1" id="Layer_1" xmlns="http://www.w3.org/2000/svg" xmlns:xlink="http://www.w3.org/1999/xlink" x="0px" y="0px"
	 viewBox="0 0 60 60" style="enable-background:new 0 0 60 60;" xml:space="preserve">
<style type="text/css">
	.st0{fill:#CDCDCD;}
</style>
<g id="XMLID_16_">
	<path id="XMLID_17_" class="st0" d="M48.4,54.9c-1.8,0-3.6-0.7-5-2l-36-36c-2.7-2.7-2.7-7.2,0-9.9c2.7-2.7,7.2-2.7,9.9,0l36,36
		c2.7,2.7,2.7,7.2,0,9.9C52,54.2,50.2,54.9,48.4,54.9z"/>
</g>
<g id="XMLID_13_">
	<path id="XMLID_15_" class="st0" d="M12.4,54.9c-1.8,0-3.6-0.7-4.9-2c-2.7-2.7-2.7-7.2,0-9.9l36-36c2.7-2.7,7.2-2.7,9.9,0
		c2.7,2.7,2.7,7.2,0,9.9l-36,36C16,54.2,14.2,54.9,12.4,54.9z"/>
</g>
</svg>
