<?xml version="1.0" encoding="utf-8"?>
<!-- Generator: Adobe Illustrator 19.0.0, SVG Export Plug-In . SVG Version: 6.00 Build 0)  -->
<svg version="1.1" id="Layer_1" xmlns="http://www.w3.org/2000/svg" xmlns:xlink="http://www.w3.org/1999/xlink" x="0px" y="0px"
	 viewBox="0 0 60 60" style="enable-background:new 0 0 60 60;" xml:space="preserve">
<style type="text/css">
	.st0{fill:#CDCDCD;}
</style>
<path id="XMLID_10_" class="st0" d="M57.2,47.1l-9.7-9.7c1.8-3.4,2.8-7.2,2.8-11.3c0-13.6-11-24.6-24.6-24.6S1,12.5,1,26.1
	s11,24.6,24.6,24.6c5,0,9.7-1.5,13.6-4.1l9.2,9.2c1.2,1.2,2.8,1.8,4.4,1.8c1.6,0,3.2-0.6,4.4-1.8C59.6,53.4,59.6,49.5,57.2,47.1z
	 M25.6,38.4c-6.8,0-12.3-5.5-12.3-12.3s5.5-12.3,12.3-12.3s12.3,5.5,12.3,12.3S32.4,38.4,25.6,38.4z"/>
</svg>
