<?xml version="1.0" encoding="utf-8"?>
<!-- Generator: Adobe Illustrator 19.0.0, SVG Export Plug-In . SVG Version: 6.00 Build 0)  -->
<svg version="1.1" id="Layer_1" xmlns="http://www.w3.org/2000/svg" xmlns:xlink="http://www.w3.org/1999/xlink" x="0px" y="0px"
	 viewBox="0 0 300 100" style="enable-background:new 0 0 300 100;" xml:space="preserve">
<style type="text/css">
	.st0{fill:#FFFFFF;}
</style>
<g id="XMLID_1_">
	<path id="XMLID_10_" class="st0" d="M50.6,69.7l-0.9-0.9c-0.2-0.2-1.7-0.2-1.9-0.4c-0.2-0.1-0.9-0.6-1-0.7
		c-1.1-0.4-6.9-0.6-8.5-0.9c-0.4-0.1-0.4-0.6-0.4-0.6c0-12.5,0.4-25,0.4-38c0-0.2,0.1-0.6,0.2-0.8c6.2-1,12.4-2.5,19.3-2.5h0.9
		c0,0,0.2,0,0.2-0.2c0-0.4-3.6-3.9-4-4.3c0,0,0-0.4-2.4-0.4c-10,0-21,4.5-31.2,4.5c-0.6,0-1.2,0-1.7-0.1c0,0-0.4-0.4-0.7-0.4h-1.5
		c0,0-0.3,0.1-0.3,0.4c0,1.8,4.7,4,10.8,4c2.4,0,4.7-0.2,7-0.4c-1.7,6.8-4,23.6-4,33.5c0,4.1,1.2,5.6,1.2,5.9c0,0.4-1,0.5-1,0.5
		c-5.9,1.1-12.7,3.3-17.4,5.7c-0.7,0.4-0.7,0.5-0.7,0.9c0,0,0.9,2,3.3,2c9-2.3,21.6-3.9,30.7-3.9c2.3,0,6.2,0.4,6.9,0.4
		c0.2,0,0.9-0.3,0.9-0.6c0-0.2-0.1-0.3-0.1-0.3C54.5,72.1,51.3,70.6,50.6,69.7z"/>
	<path id="XMLID_11_" class="st0" d="M69.6,41l0.9,0.6c2.7-4.1,4-8.9,4-12.2c0-2.5-0.7-4.1-2.2-4.1c-0.9,0-2.2,0.7-3.8,2.3
		c1.7,1.7,2.2,4.4,2.2,6.9C70.7,37.4,70,40.2,69.6,41z"/>
	<path id="XMLID_24_" class="st0" d="M77.4,43.1c0-0.2-0.3-0.3-0.5-0.3c-0.9,0-3.5,1.2-3.8,2.5c-1.1,5.9-9.6,24.8-14.5,24.8
		c-1.1,0-1.5-2-1.5-5.1c0-5.1,1.2-13.4,2.4-20.1c1.9-0.5,3.6-1.3,6.1-2.5c1.2-1.1,3.3-1.2,3.3-1.9c0-0.2-0.2-0.3-0.6-0.3
		c-0.4,0-1,0.1-1.4,0.1c-0.9,0-3.6,0.6-6.9,0.9c0.8-4.3,1.4-7.5,1.4-8c0-1.4-2.9-1.2-4.3-2.2c-0.1-0.1-0.2-0.1-0.2-0.1
		c-0.3,0-0.6,0.2-0.7,0.4c-0.1,0.6-0.9,4.6-1.8,10c-2.7-0.1-5.4-0.4-7.7-1.4c-0.1-0.2-0.2-0.2-0.4-0.2c-0.4,0-0.6,0.9-0.6,1.5
		c0,3.3,1.5,4.4,4.8,4.4h3.2c-0.6,4.8-1.2,10.1-1.2,14.7c0,7,1.2,12.6,5.1,12.6c4.6,0,12.9-13.2,15.3-21.3c0,1.5,2,12.4,2,16.6
		c0,2.3-0.8,3.3-1.8,3.3c-1.5,0-3.3-2-3.5-4.3c0-0.1-0.1-0.1-0.2-0.1c-0.4,0-0.9,1.5-0.9,3.3c0,3.8,3.2,5.9,6.2,5.9
		c2.7,0,5.2-1.7,5.2-5.5c0-5.1-3.8-14.6-3.8-19C76.5,47.2,77.4,43.2,77.4,43.1z"/>
	<path id="XMLID_32_" class="st0" d="M116.3,66.3c-0.2,0-0.3,0.8-1,1c-0.6,1.5-2.3,2.7-3.6,2.7c-1.5,0-2-2.5-2-5.6
		c0-4.4,0.9-10,0.9-11.8c0-0.7-1.5-1.2-2.7-1.5c-0.4-2.8-2-4.9-5.3-4.9c-5.9,0-9.7,9.5-9.7,17.2c0,5.3,1.9,9.8,6.1,9.8
		c2.4,0,4.8-3.3,6.4-7.7c0.6,5.6,3,7.7,5.4,7.7c2.8,0,5.8-3,5.8-6.2C116.6,66.7,116.6,66.3,116.3,66.3z M98.3,70.1
		c-1.2,0-1.9-1.8-1.9-4.3c0-4.9,2.5-14.8,6.4-14.8c0.9,0,1.9,0.6,3,2C105.3,57.8,103.4,70.1,98.3,70.1z"/>
	<path id="XMLID_35_" class="st0" d="M231.9,44.2c4.6-1.2,8.7-2.8,9.8-3.3c0,0,0.1-0.5,0.6-1.2c0.2-0.3,0.9-0.3,0.9-0.7
		c0-0.5-1.1-0.5-1.8-0.5c-1,0-4.5,0.7-8.6,1.2c0.9-4.4,1.7-7.6,1.7-8.4c0-1.4-2.9-1.2-4.3-2.2c-0.1-0.1-0.2-0.1-0.2-0.1
		c-0.3,0-0.6,0.2-0.7,0.4c-0.7,4-1.2,7-1.7,10.6H227c-2.8,0-5.6-0.3-7.8-1.2c-0.1-0.2-0.2-0.2-0.4-0.2c-0.4,0-0.6,0.9-0.6,1.5
		c0,3.3,1.4,5.5,4.7,5.5c1.2,0,2.6-0.1,4-0.3c-0.6,5.1-1.1,10.7-1.1,15.8c0,2,0.1,4,0.2,5.9c-0.1,0.2-0.3,0.3-0.6,0.4
		c-0.6,1.5-2.3,2.7-3.6,2.7c-1.5,0-2-2.5-2-5.6c0-4.4,0.9-10,0.9-11.8c0-0.7-1.5-1.2-2.7-1.5c-0.4-2.8-2-4.9-5.3-4.9
		c-5.9,0-9.7,9.5-9.7,17.2c0,5.3,1.9,9.8,6.1,9.8c2.4,0,4.8-3.3,6.4-7.7c0.6,5.6,3,7.7,5.4,7.7c2.2,0,4.4-1.8,5.3-4.1
		c0.7,4.4,2,7.8,4.5,9c0.8,0,0.9-0.9,0.9-0.9c-1.7-2.7-2.4-6.9-2.4-11.8C229.4,58.7,230.6,50.7,231.9,44.2z M208.5,70.1
		c-1.2,0-1.9-1.8-1.9-4.3c0-4.9,2.5-14.8,6.4-14.8c0.9,0,1.9,0.6,3,2C215.5,57.8,213.6,70.1,208.5,70.1z"/>
	<path id="XMLID_36_" class="st0" d="M245.4,60c-0.7,0-0.7,0.3-0.7,0.4c0.5,1.5,0.7,3,0.7,4.3c0,4.1-2.1,6.1-4.3,6.1
		c-2.4,0-5-2.5-5-7.2c0-5.8,3.6-13.2,6.9-13.4c0.3,0.1,0.4,0.5,0.4,1c0,1.4-1.1,3.8-1.6,3.8c-0.1,0-0.2,0.1-0.2,0.2
		c0,0.3,0.5,0.8,1.8,0.8c2.1,0,3.7-1.5,3.7-3.5c0-0.3-0.1-0.7-0.1-1c-0.3-4.2-2.2-6.1-4.6-6.1c-5.9,0-10.5,9.1-10.5,16.9
		c0,7.5,5,11.4,9.5,11.4c3.8,0,7.2-2.7,7.2-8C248.6,62.7,247.2,60,245.4,60z"/>
	<path id="XMLID_37_" class="st0" d="M279.5,60.1c0.6,0,1.2-0.2,1.7-0.4c0-6.2,3.5-32,3.5-34.3c0-0.5-5.3-5.6-5.9-5.6
		c-0.1,0-0.5,0-0.5,0.1c0,4.8-0.2,29.9-0.2,38.8C278.1,59.8,278.7,60.1,279.5,60.1z"/>
	<path id="XMLID_38_" class="st0" d="M279.3,64c-2.3,0-3.9,2.3-3.9,4.5c0,1.9,1.1,3.5,4,3.5c2.3,0,3.6-2,3.6-4
		C283,66,281.7,64,279.3,64z"/>
	<path id="XMLID_39_" class="st0" d="M215.1,72.4L215.1,72.4c0,0-0.6,0.2-1.4,0.5c-0.4,0.2-0.9,0.4-1.5,0.6
		c-0.3,0.1-0.6,0.2-0.9,0.3c-0.3,0.1-0.6,0.2-1,0.3c-0.3,0.1-0.7,0.2-1.1,0.3c-0.4,0.1-0.7,0.2-1.1,0.2c-0.7,0.1-1.5,0.2-2.2,0.1
		c-0.7,0-1.3-0.3-1.9-0.5c-0.6-0.3-1.1-0.7-1.6-1.2c-0.5-0.5-1-1.1-1.4-1.8c-0.4-0.7-0.8-1.4-1.2-2.2c-0.4-0.8-0.7-1.5-0.9-2.3
		c-0.2-0.5-0.3-0.9-0.5-1.3c-0.8-3.8-1.1-8.2-1.1-12.8c0-10.6,1.7-21.9,3-26.3c0.1-0.5,0.2-0.9,0.2-1.3c0-0.6-0.2-1.2-0.9-1.7
		c-1.1-0.7-2.9-2.6-3.3-3.1c-0.2-0.3-0.4-0.4-0.6-0.4c-0.1,0-0.4,0.1-0.4,0.2C189.8,30,181.2,70,177.3,70c-2,0-2.5-8-2.5-18.2
		c0-9.2,0.4-20,0.4-28.1c0-1.4-1.7-2.2-3.5-2.2c-0.5,0-1,0.1-1.5,0.2c-0.4,0-0.8,0.1-1.3,0.1c-1.8,0.1-4.5,0.4-7.6,0.8
		c-3.1,0.4-6.8,1.1-10.6,2.2c-1.9,0.5-3.9,1.2-5.9,2.1c-2,0.9-4,2-5.7,3.9c-0.8,0.9-1.6,2.1-2,3.4c-0.4,1.3-0.5,2.7-0.2,4
		c0,0.3,0.1,0.6,0.2,0.9l0.1,0.2l0.1,0.2l0.1,0.4c0.1,0.3,0.2,0.6,0.3,0.9c0.1,0.3,0.2,0.5,0.4,0.8c0.6,1.1,1.3,2.1,2.3,2.9
		c1,0.8,2.2,1.4,3.3,1.7c1.2,0.3,2.3,0.3,3.4,0.3c2.1-0.2,3.9-0.8,5.4-1.5c1.5-0.7,2.8-1.5,3.9-2.2c1.1-0.7,2-1.5,2.7-2.1
		c0.7-0.6,1.3-1.1,1.6-1.5c0.4-0.4,0.5-0.6,0.5-0.6c0.2-0.2,0.3-0.5,0.1-0.8c-0.2-0.3-0.6-0.5-0.9-0.3l0,0c0,0-0.2,0.1-0.6,0.3
		c-0.4,0.2-1.1,0.5-1.9,0.9c-0.8,0.4-1.8,0.9-2.9,1.4c-1.1,0.5-2.4,1-3.8,1.4c-1.4,0.4-2.9,0.8-4.4,0.8c-1.5,0-2.8-0.3-3.8-1.2
		c-1-0.9-1.8-2.4-2.2-4c-0.4-1.5,0-2.9,1-4.2c1-1.3,2.6-2.5,4.3-3.4c1.7-0.9,3.5-1.7,5.3-2.3c3.6-1.3,7.1-2,10.2-2.6
		c2.8-0.5,5.1-0.8,6.9-1.1c-1.5,7.5-12.8,56-29.4,56c-5.9,0-10.4-6.4-10.4-14.2c0-4.1,1.2-8.5,4.1-12.7c0.1-0.2,0.1-0.2,0.1-0.3
		c0-0.2-0.2-0.4-0.5-0.4c-0.2,0-0.4,0.1-0.6,0.2c-4.5,5.6-6.3,11.2-6.3,16c0,8.7,5.9,15,13,15c20.7,0,27.8-48.7,29.7-53.1
		c-0.2,5.1-0.2,9.8-0.2,14c0,11.3,0.6,31,6.8,31c1.4,0,3-1.4,4.3-4.1c4.5-9,9.8-29.5,11.2-32.9c0.1-0.1,0.1-0.2,0.2-0.2
		c0.1,0,0.2,0.2,0.2,0.2c-0.3,3.7-0.6,7.4-0.6,11.3c0,4.5,0.4,9.2,1.5,14.8c0.3,1.5,0.8,2.8,1.3,3.9c0,0,0,0.1,0,0.1
		c0.3,0.9,0.7,1.9,1.1,2.9c0.5,1,1,2,1.7,3c0.7,1,1.6,2,2.6,2.8c1.1,0.8,2.3,1.6,3.6,2c0.7,0.2,1.3,0.3,2,0.4c0.3,0,0.7,0,1,0
		c0.3,0,0.6-0.1,0.9-0.1c1.2-0.1,2.3-0.5,3.3-0.9c0.5-0.2,0.9-0.5,1.3-0.7c0.2-0.1,0.4-0.2,0.6-0.3c0.2-0.1,0.4-0.3,0.5-0.4
		c0.3-0.3,0.7-0.5,1-0.7c0.3-0.2,0.6-0.5,0.8-0.7c0.2-0.2,0.5-0.4,0.7-0.6c0.2-0.2,0.4-0.4,0.5-0.6c0.6-0.7,1-1.2,1-1.2
		c0.1-0.2,0.2-0.4,0.1-0.7C215.9,72.5,215.5,72.3,215.1,72.4z"/>
	<path id="XMLID_42_" class="st0" d="M272.3,65.3c-0.2,0-0.3,0.2-0.3,0.2c-0.5,1.7-2.3,4.6-4.3,4.6c-1.7,0-2-3.6-2-6.7
		c0-4.2,0.4-8.5,1.1-13.4c0-1.3-1.2-1.5-2.4-1.6c0,0-0.5-0.6-1.1-0.6c-2.1,0-6.7,9.1-7.5,11.3c-0.1,0.1-0.1,0.2-0.2,0.2
		c-0.1,0-0.2-0.1-0.2-0.2c0-1.7,0.2-5.3,0.6-9c6-5.7,10.2-17.9,10.2-26c0-4.5-1.4-7.7-4.4-7.7c-3.3,0-7.7,14.7-9.1,29.1l-0.8,10.3
		l0,0c-0.6,7.9-1.3,14.7-1.4,16.7c0.6,0.6,2.8,1.7,3.8,2.5c0.2,0.1,0.3,0.2,0.4,0.2c0.3,0,0.4-0.4,0.4-1.1c0,0-0.1-1.9-0.1-4.1
		c0-3.2,0.7-7.2,2.1-10.3c0.6-1.4,3.5-6.9,3.8-6.9c0.2,0,0.2,0.8,0.2,1.1c-0.1,1.7-0.3,4.5-0.3,7.4c0,3.6,0.3,12.2,5.8,12.2
		c0.9,0,1.9-0.2,3-1.1c1.7-1.2,3.4-3.8,3.4-6.1C272.9,65.9,272.8,65.3,272.3,65.3z M262.1,24.1c0.5,0,0.8,1,0.8,2.5
		c0,4.8-2.4,15.3-7,20.9C256.9,36.1,260,24.1,262.1,24.1z"/>
</g>
</svg>
