<?xml version="1.0" encoding="utf-8"?>
<!-- Generator: Adobe Illustrator 19.0.0, SVG Export Plug-In . SVG Version: 6.00 Build 0)  -->
<svg version="1.1" id="Layer_1" xmlns="http://www.w3.org/2000/svg" xmlns:xlink="http://www.w3.org/1999/xlink" x="0px" y="0px"
	 viewBox="125 -125 300 300" style="enable-background:new 125 -125 300 300;" xml:space="preserve">
<style type="text/css">
	.st0{fill:#FC6952;}
</style>
<path id="XMLID_2_" class="st0" d="M329.6,24.3c26,0,47.1,18.3,47.1,40.9c0,14.1-8.2,26.5-20.7,33.9v14c0,2.1-1.5,3-3.4,2l-17.7-9.3
	c-1.8,0.2-3.6,0.3-5.4,0.3c-26,0-47.1-18.3-47.1-40.9S303.6,24.3,329.6,24.3z"/>
<path id="XMLID_5_" class="st0" d="M270.5,64c0-28.3,26.4-51.3,59.1-51.3c11.2,0,21.7,2.7,30.6,7.4c0.1-1.5,0.1-3,0.1-4.5
	c0-44.8-41.9-81.2-93.5-81.2c-51.7,0-93.5,36.3-93.5,81.2c0,28,16.3,52.7,41.1,67.2v27.8c0,4.2,3,6,6.7,4l35-18.4
	c3.5,0.3,7,0.5,10.7,0.5c5.6,0,11-0.4,16.3-1.3C275.2,86.9,270.5,75.9,270.5,64z"/>
</svg>
