<?xml version="1.0" encoding="utf-8"?>
<!-- Generator: Adobe Illustrator 19.0.0, SVG Export Plug-In . SVG Version: 6.00 Build 0)  -->
<svg version="1.1" id="Layer_1" xmlns="http://www.w3.org/2000/svg" xmlns:xlink="http://www.w3.org/1999/xlink" x="0px" y="0px"
	 viewBox="0 0 300 300" style="enable-background:new 0 0 300 300;" xml:space="preserve">
<style type="text/css">
	.st0{fill:#FFFFFF;}
</style>
<path id="XMLID_8_" class="st0" d="M230.1,86.7c-0.1-1-0.2-1.7-0.3-2.2c-0.1-0.5-0.2-0.8-0.2-0.8c-0.8-4-3.9-7.3-8.1-8.1
	c0,0-0.3-0.1-0.8-0.2c-0.5-0.1-1.2-0.2-2.2-0.3c-1.7-0.1-4.3-0.2-6.9,0.4c-2.5,0.6-5.6,1.3-8.9,2.4c-3.3,1.1-6.4,2.8-9.4,5.2
	c-6.1,4.6-12.8,10.4-19.2,17.2c-5.8,6.2-12.1,12.9-18.3,19.5l-55.8-7c-2.5-0.3-6.1,0.9-7.9,2.7l-7.4,7.4c-1.8,1.8-1.5,4.3,0.7,5.6
	l40.7,23.8c-3.4,3.8-6.6,7.4-9.5,10.6c-5,5.7-9.1,10.5-12,13.8c-0.4,0.5-0.8,1-1.2,1.4H86.9c-2.6,0-5.9,1.7-7.4,3.7l-3.2,4.4
	c-1.5,2.1-0.9,4.7,1.4,5.9l23.2,12.4l12.9,24.1c1.2,2.3,3.9,2.9,5.9,1.4l4.4-3.2c2.1-1.5,3.7-4.8,3.7-7.4v-18.2
	c0.3-0.2,0.5-0.4,0.8-0.7c3.3-2.9,8.1-7,13.8-12c4.4-3.9,9.3-8.4,14.6-13.1l26.2,44.8c1.3,2.2,3.8,2.5,5.6,0.7l7.4-7.4
	c1.8-1.8,3-5.4,2.7-7.9l-7.8-61.6c4.7-4.4,9.4-8.8,13.9-13c6.9-6.5,12.7-13.1,17.2-19.2c2.4-3,4.1-6.1,5.2-9.4
	c1.1-3.3,1.8-6.3,2.4-8.9C230.3,91,230.2,88.4,230.1,86.7z"/>
</svg>
