<?xml version="1.0" encoding="utf-8"?>
<!-- Generator: Adobe Illustrator 19.0.0, SVG Export Plug-In . SVG Version: 6.00 Build 0)  -->
<svg version="1.1" id="Layer_1" xmlns="http://www.w3.org/2000/svg" xmlns:xlink="http://www.w3.org/1999/xlink" x="0px" y="0px"
	 viewBox="0 0 300 300" style="enable-background:new 0 0 300 300;" xml:space="preserve">
<style type="text/css">
	.st0{fill:#F3735B;}
</style>
<path id="XMLID_8_" class="st0" d="M222.1,195.9c0,0-0.4-0.6-1.1-1.6c-0.8-1-1.8-2.5-3.2-4.3c-1.4-1.8-3.1-4-5.1-6.5
	c-2-2.5-4.3-5.3-6.8-8.3c-2.5-3-5.3-6.2-8.3-9.6c-3-3.4-6.1-6.9-9.5-10.5c-1.6-1.7-3.2-3.5-4.8-5.2c1.7-1.8,3.3-3.5,4.9-5.2
	c3.3-3.6,6.5-7.1,9.5-10.5c3-3.4,5.7-6.6,8.3-9.6c2.5-3,4.8-5.8,6.8-8.3c2-2.5,3.7-4.7,5.1-6.5c1.4-1.8,2.5-3.3,3.2-4.3
	c0.7-1,1.1-1.6,1.1-1.6c4.5-6.3,4.7-15.1,0-21.7c-6-8.4-17.7-10.3-26.1-4.3c0,0-0.6,0.4-1.6,1.1c-1,0.8-2.5,1.8-4.3,3.2
	c-1.8,1.4-4,3.1-6.5,5.1c-2.5,2-5.3,4.3-8.3,6.8c-3,2.5-6.2,5.3-9.6,8.3c-3.4,3-6.9,6.1-10.5,9.5c-1.7,1.6-3.4,3.2-5.2,4.8
	c-1.8-1.7-3.5-3.3-5.2-4.8c-3.6-3.3-7.1-6.5-10.5-9.5c-3.4-3-6.6-5.7-9.6-8.3c-3-2.5-5.8-4.8-8.3-6.8c-2.5-2-4.7-3.7-6.5-5.1
	c-1.8-1.4-3.3-2.5-4.3-3.2c-1-0.7-1.6-1.1-1.6-1.1c-6.3-4.5-15.1-4.7-21.7,0C74,84,72,95.7,78,104.1c0,0,0.4,0.6,1.1,1.6
	c0.8,1,1.8,2.5,3.2,4.3c1.4,1.8,3.1,4,5.1,6.5c2,2.5,4.3,5.3,6.8,8.3c2.5,3,5.3,6.2,8.3,9.6c3,3.4,6.1,6.9,9.5,10.5
	c1.6,1.7,3.2,3.5,4.9,5.2c-1.7,1.7-3.3,3.5-4.8,5.2c-3.3,3.6-6.5,7.1-9.5,10.5c-3,3.4-5.7,6.6-8.3,9.6c-2.5,3-4.8,5.8-6.8,8.3
	c-2,2.5-3.7,4.7-5.1,6.5c-1.4,1.8-2.5,3.3-3.2,4.3c-0.7,1-1.1,1.6-1.1,1.6c-4.5,6.3-4.8,15.2,0,21.9c6,8.4,17.7,10.3,26.1,4.3
	c0,0,0.6-0.4,1.6-1.1c1-0.8,2.5-1.8,4.3-3.2c1.8-1.4,4-3.1,6.5-5.1c2.5-2,5.3-4.3,8.3-6.8c3-2.5,6.2-5.3,9.6-8.3
	c3.4-3,6.9-6.1,10.5-9.5c1.7-1.6,3.5-3.2,5.2-4.9c1.8,1.7,3.5,3.3,5.2,4.9c3.6,3.3,7.1,6.5,10.5,9.5c3.4,3,6.6,5.7,9.6,8.3
	c3,2.5,5.8,4.8,8.3,6.8c2.5,2,4.7,3.7,6.5,5.1c1.8,1.4,3.3,2.5,4.3,3.2c1,0.7,1.6,1.1,1.6,1.1c6.3,4.5,15.2,4.8,21.9,0
	C226.2,216,228.1,204.3,222.1,195.9z"/>
</svg>
