<?xml version="1.0" encoding="utf-8"?>
<!-- Generator: Adobe Illustrator 19.0.0, SVG Export Plug-In . SVG Version: 6.00 Build 0)  -->
<svg version="1.1" id="Layer_1" xmlns="http://www.w3.org/2000/svg" xmlns:xlink="http://www.w3.org/1999/xlink" x="0px" y="0px"
	 viewBox="0 0 300 300" style="enable-background:new 0 0 300 300;" xml:space="preserve">
<style type="text/css">
	.st0{fill:#76C694;}
</style>
<path id="XMLID_4_" class="st0" d="M251,125.7c0-30.8-25-55.8-55.8-55.8c-18.6,0-35,9.1-45.2,23c-10.2-13.9-26.6-23-45.2-23
	C74,69.9,49,94.8,49,125.7c0,14.2,5.3,27.1,14.1,37H63l0.5,0.5c2,2.2,4.2,4.2,6.6,6.1l79.9,74.7l79.9-74.7c2.4-1.9,4.6-3.9,6.6-6.1
	l0.5-0.5h-0.1C245.7,152.9,251,139.9,251,125.7z"/>
</svg>
