<?xml version="1.0" encoding="utf-8"?>
<!-- Generator: Adobe Illustrator 19.0.0, SVG Export Plug-In . SVG Version: 6.00 Build 0)  -->
<svg version="1.1" id="Layer_1" xmlns="http://www.w3.org/2000/svg" xmlns:xlink="http://www.w3.org/1999/xlink" x="0px" y="0px"
	 viewBox="0 0 300 300" style="enable-background:new 0 0 300 300;" xml:space="preserve">
<style type="text/css">
	.st0{fill:#FFCF5B;}
</style>
<path id="XMLID_5_" class="st0" d="M151,96.6c-0.8,0-1.5,0.1-2.3,0.2V72.4c0-5.2-3.1-6.5-6.9-3l-37.1,35c-3.8,3.6-3.8,9.4,0,13
	l37.1,35c3.8,3.6,6.9,2.2,6.9-3v-23.5c0.8,0.1,1.5,0.2,2.3,0.2c21.2,0,38.4,17.2,38.4,38.4S172.2,203,151,203s-38.4-17.2-38.4-38.4
	c0-8.1-6.6-14.8-14.8-14.8S83,156.4,83,164.6c0,37.5,30.5,67.9,68,67.9s68-30.5,68-68C219,127,188.5,96.6,151,96.6z"/>
</svg>
