<?xml version="1.0" encoding="utf-8"?>
<!-- Generator: Adobe Illustrator 19.0.0, SVG Export Plug-In . SVG Version: 6.00 Build 0)  -->
<svg version="1.1" id="Layer_1" xmlns="http://www.w3.org/2000/svg" xmlns:xlink="http://www.w3.org/1999/xlink" x="0px" y="0px"
	 viewBox="125 -125 300 300" style="enable-background:new 125 -125 300 300;" xml:space="preserve">
<style type="text/css">
	.st0{fill:#CDCCCC;}
</style>
<path class="st0" d="M281.5-98.9c2.2,1.7,4,3.7,6.1,5.5c18.7,17.6,35.8,37.1,49.6,58.9c13.3,21.1,23.6,44.3,28.2,68.9
	c2.5,13.5,3.3,27.3,1.9,40.9c-0.7,5.7-1.7,11.4-3.5,16.8c-2.5,7.9-5.9,15.6-10.5,22.5c-3.9,6-8.9,11.3-14.6,15.7
	c-6.3,4.7-13.4,8.2-20.9,10.6c-9.3,3-19,4.4-28.7,5.2c-11.6,0.9-23.2,1-34.7-0.4c-13.1-1.6-26-5.1-37.6-11.4
	c-10.8-5.8-20.2-14.3-26.3-25c-7-12.2-9.4-26.7-8.2-40.7c1.1-14.8,5.9-29.2,12.1-42.6c5.4-11.5,12-22.5,19.4-32.8
	c6.3-8.8,13-17.2,20.4-25.1c0.1-0.1,0.4-0.3,0.5-0.4c-0.1,6.7,0.5,13.3,2.4,19.7c1.9,6.5,5.2,12.7,9.6,17.9c0.3,0.3,0.4,0.8,0.9,0.8
	c9.5-7.1,18.4-15.1,25.4-24.7c7.2-9.9,12.1-21.5,13.9-33.6C289.4-67.8,287.3-84.1,281.5-98.9z"/>
</svg>
