<?xml version="1.0" encoding="utf-8"?>
<!-- Generator: Adobe Illustrator 19.0.0, SVG Export Plug-In . SVG Version: 6.00 Build 0)  -->
<svg version="1.1" id="Layer_1" xmlns="http://www.w3.org/2000/svg" xmlns:xlink="http://www.w3.org/1999/xlink" x="0px" y="0px"
	 viewBox="474 -76.2 1248.4 453.2" style="enable-background:new 474 -76.2 1248.4 453.2;" xml:space="preserve">
<style type="text/css">
	.st0{fill:#FF6747;}
</style>
<path class="st0" d="M682.6-76.1c3,1.4,4.9,4.3,7.3,6.6c3.9,3.4,6.8,7.9,10.6,11.4c4.7,4.5,7.7,10.2,11.6,15.3
	c6.8,10.3,12.8,21.3,15.9,33.3c3.2,8.2,3.7,17.1,3.5,25.9c0.2,8-2,15.9-5.6,23.1c-6.2,10.9-17.4,18.2-29.1,22.1
	c-14.6,3.5-30.7,4.1-44.8-2.1c-5.1-2.8-10.9-4.7-15-9.1c-9.5-7.8-15-20.5-13.2-32.8c2.8-21.9,15.9-40.7,29.9-56.9
	c1.3,2.4,0.2,5.2,1.1,7.7c1.2,5.3,3.1,10.9,7.1,14.7c4.9-4.5,10.1-9,14.3-14.2c3.8-5.6,6.9-11.8,8.2-18.4c0.3-8.4,1.1-17.2-2.1-25.2
	L682.6-76.1z"/>
<path class="st0" d="M499.4,23.8c23.4,0.2,46.9-0.2,70.3,0.2c0,23.3,0.2,46.6-0.1,69.9c16.6,0.3,33.2,0.1,49.9,0.1
	c0.2,1.8,0.3,3.6,0.3,5.4c-0.2,19.2,0.1,38.3-0.2,57.5c-16.7,0.2-33.3,0-50,0.1c0.3,34.5-0.1,68.9,0.2,103.4c0.6,3,1,6,0.9,9.1
	c-0.3,2.8,1.4,5.1,2,7.7c1.3,6,4.6,11.4,8.4,16.1c5.6,5.6,12.8,9.5,20.5,11.2c7,1.1,14,1.7,21.1,1.2c0.4,1.2,0.6,2.4,0.6,3.7
	c-0.1,18-0.1,36,0,53.9c0,2.5-0.5,5-0.9,7.4c-10.1,0-20.2,0.7-30.3,0c-6-1.3-12.4-0.7-18.2-3.3c-16.1-3.8-31.5-11.8-43-23.9
	c-16.9-16.3-26-39.3-29.7-62.1c-1-2.5-0.4-5.4-0.8-8.1c-1.4-5.5-0.8-11.3-1-16.9C499.3,178.9,499.3,101.3,499.4,23.8z"/>
<path class="st0" d="M841,88.6c4.2-1.1,8.7-0.3,12.9-1.2c8.8-1.1,17.5,0.3,26.2,0.6c6.1-0.1,12,1.7,18,2.9
	c22.3,5.4,43.4,17.3,58.7,34.7c2.7,4.5,6.8,7.8,9.4,12.4c6.5,10.3,10.8,21.8,14.5,33.4c2.3,8.5,3.5,17.3,4.6,26
	c0.5,19.3,0.2,38.7,0.3,58c-0.1,38.5,0.1,77-0.1,115.5c-23.4-0.3-46.7-0.1-70-0.2c-0.2-0.1-0.7-0.5-0.9-0.7
	c-0.1-53.9,0-107.8,0-161.6c0.1-6.6-1.1-13-2.5-19.3c-2.5-6.4-5.7-12.5-10.1-17.7c-2.6-3.1-6.2-5.1-9.1-7.8c-4.5-3-9.8-4.4-14.9-5.8
	c-2.7-0.2-5.4,0-7.9-0.9c-10.7-0.7-21.6,0.2-31.6,4.3c-7.3,3.5-14.1,8.3-18.9,15c-7.9,9.4-10.5,22.2-10.3,34.2
	c0,53.4,0.1,106.9,0,160.3c-23.6,0.2-47.2-0.1-70.8,0.2c-0.4-51.5,0-103.1-0.2-154.6c0.1-6.6-0.1-13.2,0.4-19.8
	c1.3-3.3,0.4-6.9,1.4-10.1c1.8-12.2,6.4-23.8,11.5-34.9c5-9.7,11-19,18.8-26.7c6.1-6.2,12.4-12.7,20.1-17
	C805.4,97.4,823,91.1,841,88.6z"/>
<path class="st0" d="M1679,88c8.7-0.2,17.3-1.9,26-0.5c4.7,0.6,9.5,0.5,14.2,0.7c0.9,8.7,0.2,17.5,0.4,26.2c0,11.7,0,23.3,0,35
	c0,2.2,0.3,4.5-0.6,6.6c-2.3-1.7-5.4-1.1-8-1.8c-10.6-0.9-21.5-0.4-31.5,3.6c-11.9,4.1-22.3,12.8-28.1,24.1
	c-1.7,2.1-1.7,5.1-3.6,7.1c-3.1,11.2-3.3,22.9-3.1,34.4c-0.1,49.2,0.3,98.3-0.2,147.5c-23.3-0.3-46.7,0-70.1-0.2
	c-0.2-0.2-0.5-0.6-0.7-0.8c0-53.5,0-107,0-160.5c-0.3-6.7,1.2-13.2,1.1-19.8c1.6-3.2,1.2-6.9,2.2-10.2c5-25.3,18.3-49.2,38.5-65.5
	c3.9-4.4,9.5-6.5,14.1-10C1644.5,94.8,1661.8,90.4,1679,88z"/>
<path class="st0" d="M642.5,93.9c23.6,0.4,47.2-0.1,70.8,0.2c0,91.5-0.1,182.9,0,274.3c0,0.9,0,2.7-1.4,2.4c-23.1,0-46.1,0-69.2,0
	c-0.6-15.1-0.1-30.3-0.3-45.4C642.5,248.3,642.4,171.1,642.5,93.9z"/>
<path class="st0" d="M1383,279.5c6-2.3,11.8-5.3,17.9-7.4c8.8-3.4,17.4-7.5,26.2-10.9c18.2-8.4,37-15.4,55.4-23.3
	c4.4-2.4,9.4-3.5,13.7-6.1c4.9-1.9,9.8-3.6,14.6-5.8c4.2-2.5,9-3.5,13.3-5.7c5.7-2.3,11.2-4.9,17-7c5.9-3.3,12.5-4.9,18.4-8.1
	c1.6-1.1,4.2-0.8,5.2-2.7c-1.7-2.4-0.8-5.4-1.7-8c-1.3-4.7-2.6-9.3-3.7-13.9c-4.5-13.9-11-27.2-19.8-38.8
	c-10.7-15.5-25.4-28-41.7-37.2c-10.7-6.5-22.7-10.2-34.7-13.4c-7.4-0.9-14.5-3.5-22-3.4c-6.8-0.9-13.8-1.3-20.5-0.1
	c-11.9,0.2-23.3,3.1-34.6,6.4c-19.7,6.9-38.4,17.4-53.5,31.9c-4.5,4.2-8.2,9.1-12.5,13.4c-6.7,8.6-12.8,17.7-17.4,27.5
	c-6.5,14.7-12.7,30.1-13.4,46.4c-2.2,7.8-1.5,16-1.6,24c-0.2,5.1,0.6,10.1,1.6,15c-0.3,5.2,1.7,10,2.4,15
	c1.7,10.6,6.4,20.4,10.7,30.2c11.8,24.2,30.4,45.2,53.7,58.9c15.3,9.4,32.3,16.1,50.1,18.6c14.5,2.3,29.4,2.7,44,0.8
	c5,0.4,9.8-1.8,14.8-2.1c21.3-5,42.2-14,58.3-29.1c4.8-3.8,9.3-8.3,13.1-13.1c6.4-6.5,11-14.4,15.6-22.2c4.4-8.3,8-17.1,10.6-26.2
	c-1.4-0.6-3-0.4-4.4-0.4c-23.4,0.1-46.7-0.1-70.1,0c-2.2,0-2.2,3-3.6,4.2c-4,5.8-9.1,10.7-14.5,15.3c-7.8,5.6-17,8.6-26.1,11.3
	c-2.4,0.3-4.7,0.2-6.9,1.1c-5.6,0.4-11.3,0.2-17,0.1c-6.3-1.2-12.6-2.6-18.7-4.6c-9.4-4.8-18.6-10.3-25.7-18.1
	c-1.8-2.2-4.7-3.9-5.3-6.8c1.6-0.7,3.1-1.8,4.9-2.1C1378,282.6,1380.2,280.3,1383,279.5z M1354.2,228.9c-1.4-3.5-0.1-7.6-0.3-11.3
	c1.6-5.1,2.1-10.5,4-15.6c4.8-11.3,10.7-22.4,19.3-31.3c4-3.3,7.4-7.3,12-9.8c3.4-1.8,6.7-3.8,10.2-5.4c6.5-1.9,12.8-4.9,19.6-4.9
	c6.2-1.5,12.6-0.7,18.9-0.6c16.5,2.3,33.1,9.4,43.8,22.5c1.1,2.6-2.6,2.8-4.1,3.8c-6.5,3.6-13.8,5.4-20.3,9.1
	c-2.9,0.5-5.4,2.3-8.2,3.2c-20.7,9-41.8,16.9-62.3,26.3C1375.8,219.2,1364.9,223.8,1354.2,228.9z"/>
<path class="st0" d="M1279.7-28.3c-21.9-0.2-43.8,0-65.7-0.1c-1.6,0.2-3.5-0.5-4.8,0.7c0.2,47,0,94.1,0.1,141.1
	c-0.1,1.7,0.3,3.4-0.4,5c-2-0.3-3-2.2-4.5-3.3c-10.1-8.7-21.4-16.1-34-20.4c-8.5-3.3-17.4-5-26.4-6.6c-10.2-0.2-20.5-0.5-30.8,0.1
	c-1.1,0.3-2.1,0.6-3.2,0.7c-22.9,3.2-44.3,13.9-61.9,28.6c-9.8,9.2-19.6,18.8-26.5,30.4c-8.1,11.5-13.3,24.7-18.3,37.7
	c-2.3,8.2-4.6,16.3-5.6,24.7c-1.9,12.9-1.1,26.1-0.9,39.1c0.5,3.4,1.6,6.6,1.7,10c1.8,11,5,21.8,9.4,32.1
	c3.7,9.9,9.7,18.9,15.2,27.9c3.9,5,7.7,10.2,12.4,14.6c7,6.9,13.9,14.4,22.7,19.2c10.4,7.9,22.7,12.6,34.7,17.2
	c4.4,0.8,8.5,3.3,13,3.4c3.8,0.3,7.3,2.1,11.1,1.9c2-0.2,3.8,1.2,5.9,1c9.7,0.3,19.5,0.3,29.2,0c1.6,0,3.2-0.7,4.9-0.8
	c6.7,0.1,12.9-2.5,19.4-3.4c8.5-3.1,17.6-5.1,25.5-9.7c11.7-5.4,22.3-13,31.8-21.6c12-10.4,21.7-23.4,28.9-37.6
	c3.1-6.3,6.6-12.4,8.6-19.2c3.8-9.4,5.5-19.4,6.8-29.3c2.2-8.7,1.5-17.8,1.7-26.8C1279.7,142.8,1279.7,57.3,1279.7-28.3z
	 M1208.6,242.5c-0.6,10.6-4.6,20.7-9.3,30.2c-7.9,14.9-21.2,26.3-36.3,33.5c-2.3,1.2-5.3,1.1-6.9,3.3c-2.8,0-5.6,0.1-8.3,1.1
	c-8.6,0.2-17.5,1-25.9-1.4c-3.6-1.7-7.6-2.4-11.2-4.3c-4.5-2.5-9.6-4.2-13.3-8c-7-4.9-12.4-11.6-17.3-18.5
	c-3.9-6.7-7.8-13.6-9.6-21.2c-2-4-1.8-8.5-2.9-12.7c-0.3-10.7-0.9-21.7,1.6-32.1c1.1-3.3,1.8-6.8,3-10.1c2.9-5.3,4.7-11.2,8.5-16
	c2-4.2,5.5-7.3,8.3-10.9c7.5-8.6,17.8-14.1,28.2-18.4c3.9-0.9,7.7-2.9,11.8-2.9c8.3-2.1,16.9-0.4,25.1,1.1
	c10.8,3.9,21.5,9.3,29.9,17.3c3.1,2.9,5.4,6.5,8.5,9.4C1205.3,199.1,1211.2,221.2,1208.6,242.5z"/>
</svg>
