<?xml version="1.0" encoding="utf-8"?>
<!-- Generator: Adobe Illustrator 19.0.0, SVG Export Plug-In . SVG Version: 6.00 Build 0)  -->
<svg version="1.1" id="Layer_1" xmlns="http://www.w3.org/2000/svg" xmlns:xlink="http://www.w3.org/1999/xlink" x="0px" y="0px"
	 viewBox="0 0 300 300" style="enable-background:new 0 0 300 300;" xml:space="preserve">
<style type="text/css">
	.st0{fill:#D0D0D0;}
</style>
<path id="XMLID_24_" class="st0" d="M184.9,141.9c14-10.3,23.1-27.3,23.1-46c0-31.3-25.3-56.8-56.6-56.8S94.8,64.2,94.8,95.5
	c0,18.7,9.1,36.1,23.1,46.4c-32,13-54.6,45.8-54.6,82.4c0,48.9,176.2,48.9,176.2,0C239.5,187.7,217,154.9,184.9,141.9z"/>
<path id="XMLID_23_" class="st0" d="M249.9,143.3c10.3-7.6,17-19.9,17-33.7c0-23-18.6-41.7-41.6-41.7c-5.2,0-10.1,0.9-14.7,2.7
	c3.3,7.7,5.1,16.2,5.1,25.1c0,16.4-6.3,32.1-17.2,43.9c29.9,16.7,48.7,48.5,48.7,84c0,1.4-0.1,2.9-0.4,4.4
	c23.8-3,43.2-11.1,43.2-24.4C290,175,273.4,152.8,249.9,143.3z"/>
<path id="XMLID_20_" class="st0" d="M55.7,223.6c0-34.8,18.1-66.1,47.1-83.1c0.4-0.4,0.9-0.8,1.3-1.2
	c-10.7-11.8-16.9-27.4-16.9-43.8c0-8.4,1.7-16.5,4.6-23.9c-5.2-2.4-11-3.7-17.1-3.7c-23,0-41.6,18.6-41.6,41.6
	c0,13.8,6.7,26.2,17,33.8C26.6,152.9,10,175,10,203.6c0,13.8,21,22.1,46.1,24.7C55.8,226.7,55.7,225.1,55.7,223.6z"/>
</svg>
